<svg width="512" height="512" viewBox="0 0 512 512" fill="none" xmlns="http://www.w3.org/2000/svg">
<g clip-path="url(#clip0_237_3)">
<path opacity="0.979" fill-rule="evenodd" clip-rule="evenodd" d="M49.5 -0.5C150.833 -0.5 252.167 -0.5 353.5 -0.5C378.633 5.79823 394.8 21.4649 402 46.5C403.641 101.468 403.975 156.468 403 211.5C398.18 221.552 390.68 224.052 380.5 219C378.383 217.269 376.883 215.102 376 212.5C375.667 161.167 375.333 109.833 375 58.5C372.291 41.4575 362.458 31.2909 345.5 28C249.5 27.3333 153.5 27.3333 57.5 28C43.0698 30.4301 33.5698 38.5968 29 52.5C27.3453 185.475 27.012 318.475 28 451.5C30.2467 469.081 40.08 479.581 57.5 483C121.5 483.333 185.5 483.667 249.5 484C258.83 489.282 260.996 496.782 256 506.5C253.83 508.823 251.33 510.49 248.5 511.5C182.833 511.5 117.167 511.5 51.5 511.5C22.713 505.047 5.37966 487.38 -0.5 458.5C-0.5 323.167 -0.5 187.833 -0.5 52.5C5.16555 24.5 21.8322 6.83331 49.5 -0.5Z" fill="white"/>
<path opacity="0.973" fill-rule="evenodd" clip-rule="evenodd" d="M80.4999 118.5C160.167 118.333 239.834 118.5 319.5 119C329.544 123.799 332.044 131.299 327 141.5C325.269 143.617 323.102 145.117 320.5 146C240.167 146.667 159.833 146.667 79.4999 146C70.1703 140.718 68.0037 133.218 72.9999 123.5C75.4255 121.548 77.9255 119.881 80.4999 118.5Z" fill="white"/>
<path opacity="0.973" fill-rule="evenodd" clip-rule="evenodd" d="M80.5001 225.5C126.501 225.333 172.501 225.5 218.5 226C227.117 231.188 229.284 238.354 225 247.5C223.062 250.106 220.562 251.939 217.5 253C172.167 253.667 126.833 253.667 81.5001 253C72.1837 248.242 69.6837 241.075 74.0001 231.5C76.0628 229.266 78.2295 227.266 80.5001 225.5Z" fill="white"/>
<path opacity="0.956" fill-rule="evenodd" clip-rule="evenodd" d="M339.5 255.5C380.458 252.184 412.624 267.184 436 300.5C452.192 328.897 454.858 358.563 444 389.5C423.963 432.491 390.13 452.657 342.5 450C293 441.833 264.167 413 256 363.5C253.339 315.873 273.505 282.04 316.5 262C324.163 259.338 331.829 257.172 339.5 255.5ZM342.5 282.5C379.653 280.062 405.319 295.895 419.5 330C428.721 364.674 418.721 392.34 389.5 413C358.548 428.968 329.881 425.635 303.5 403C279.803 376.306 276.303 347.139 293 315.5C305.154 297.823 321.654 286.823 342.5 282.5Z" fill="white"/>
<path opacity="0.948" fill-rule="evenodd" clip-rule="evenodd" d="M511.5 492.5C511.5 495.167 511.5 497.833 511.5 500.5C509.632 505.04 506.632 508.707 502.5 511.5C498.167 511.5 493.833 511.5 489.5 511.5C469.591 493.093 450.091 474.093 431 454.5C426.213 446.876 426.38 439.376 431.5 432C439.167 426 446.833 426 454.5 432C472.305 450.805 490.471 469.305 509 487.5C509.757 489.315 510.59 490.981 511.5 492.5Z" fill="white"/>
</g>
<defs>
<clipPath id="clip0_237_3">
<rect width="512" height="512" fill="white"/>
</clipPath>
</defs>
</svg>
